<svg id="Capa_1" data-name="Capa 1" xmlns="http://www.w3.org/2000/svg" viewBox="0 0 139.44 187.72"><defs><style>.cls-1{fill:#fff;stroke:#d2d4d8;stroke-miterlimit:10;}.cls-1,.cls-11,.cls-13,.cls-15,.cls-16,.cls-17,.cls-18,.cls-20,.cls-21,.cls-3,.cls-4,.cls-7,.cls-9{fill-rule:evenodd;}.cls-2{fill:#010255;}.cls-3{fill:#6897c3;}.cls-4{fill:#fedc00;}.cls-10,.cls-12,.cls-14,.cls-19,.cls-5,.cls-8{fill:none;}.cls-5{stroke:#fedc00;}.cls-10,.cls-12,.cls-14,.cls-19,.cls-5,.cls-6,.cls-8{stroke-width:0.57px;}.cls-6,.cls-7{fill:#dbdada;}.cls-6,.cls-8{stroke:#dbdada;}.cls-9{fill:#6d6e71;}.cls-10{stroke:#6d6e71;}.cls-11{fill:#1a1a23;}.cls-12{stroke:#000;}.cls-13{fill:#231f20;}.cls-14{stroke:#231f20;}.cls-15{fill:#5a331a;}.cls-16{fill:#885b43;}.cls-17{fill:#73442b;}.cls-18{fill:#faf9f7;}.cls-19{stroke:#faf9f7;}.cls-20{fill:#e70e0e;}.cls-21{fill:#fefffa;}</style></defs><title>Logo_simple_test</title><path class="cls-1" d="M72.56,4.63c38.23,0,69.22,41.8,69.22,93.36s-31,93.37-69.22,93.37S3.34,149.56,3.34,98,34.34,4.63,72.56,4.63Z" transform="translate(-2.84 -4.13)"/><path class="cls-2" d="M34.58,161.29l-1.25,1-3-3.87,1.25-1Z" transform="translate(-2.84 -4.13)"/><path class="cls-2" d="M35.45,170.13l-1.57-1.41L44,163.16l1.82,1.63-4.41,10.69-1.58-1.41,3.62-8.4-.06-.06ZM38.36,167l4.29,3.84L41.59,172l-4.29-3.84Z" transform="translate(-2.84 -4.13)"/><path class="cls-2" d="M47.22,166.23l1.88,1.21-.37,5.5.08.06,4.86-2.61,1.88,1.2-7,3.61-2.21,3.42-1.65-1.07,2.2-3.42Z" transform="translate(-2.84 -4.13)"/><path class="cls-2" d="M51.49,181.55l-2-.81,7.7-8.62,2.26.93-.6,11.55L57,183.8l.61-9.13-.08,0Zm1.69-3.93,5.32,2.19-.61,1.47-5.31-2.19Z" transform="translate(-2.84 -4.13)"/><path class="cls-2" d="M70.62,179.37l-2-.33a2.63,2.63,0,0,0-.16-.91,2.36,2.36,0,0,0-.46-.74,2.24,2.24,0,0,0-.69-.52,2.88,2.88,0,0,0-.9-.29,2.79,2.79,0,0,0-1.63.17,2.91,2.91,0,0,0-1.28,1.1,4.92,4.92,0,0,0-.73,2,5.07,5.07,0,0,0,0,2.14,2.87,2.87,0,0,0,.84,1.45,2.81,2.81,0,0,0,1.48.7,3.17,3.17,0,0,0,.92,0,2.58,2.58,0,0,0,.83-.25,2.42,2.42,0,0,0,.68-.52,2.45,2.45,0,0,0,.46-.79l2,.35a4.58,4.58,0,0,1-.73,1.36,4.35,4.35,0,0,1-1.15,1,4.41,4.41,0,0,1-1.51.56,5.19,5.19,0,0,1-1.8,0,4.93,4.93,0,0,1-2.42-1.09A4.62,4.62,0,0,1,61,182.59a7.35,7.35,0,0,1,1-6,4.65,4.65,0,0,1,2.08-1.59,5,5,0,0,1,2.63-.23,5.3,5.3,0,0,1,1.63.54,4.28,4.28,0,0,1,1.25,1,3.92,3.92,0,0,1,.79,1.36A4.56,4.56,0,0,1,70.62,179.37Z" transform="translate(-2.84 -4.13)"/><path class="cls-2" d="M77.69,175.17l2-.15.53,7.11a3.72,3.72,0,0,1-1.83,3.59,5.73,5.73,0,0,1-4.65.35,3.75,3.75,0,0,1-1.65-1.27,3.89,3.89,0,0,1-.7-2l-.52-7.11,2-.14.51,6.94a2.58,2.58,0,0,0,.39,1.19,2.13,2.13,0,0,0,.91.77,3,3,0,0,0,2.6-.19,2.12,2.12,0,0,0,.78-.9,2.5,2.5,0,0,0,.21-1.23Z" transform="translate(-2.84 -4.13)"/><path class="cls-2" d="M89.67,175.63l-1.9.62a2.32,2.32,0,0,0-.57-.73,2.24,2.24,0,0,0-.74-.44,2.47,2.47,0,0,0-.86-.15,3.49,3.49,0,0,0-.93.16,2.8,2.8,0,0,0-1.36.92,2.88,2.88,0,0,0-.63,1.56,5.88,5.88,0,0,0,1.3,4,2.9,2.9,0,0,0,1.43.89,2.81,2.81,0,0,0,1.62-.07,3.28,3.28,0,0,0,.84-.41,2.49,2.49,0,0,0,.61-.6,2.36,2.36,0,0,0,.41-1.69l1.89-.61a4.25,4.25,0,0,1-.55,3,4.36,4.36,0,0,1-1.08,1.2,5.1,5.1,0,0,1-1.59.83,5,5,0,0,1-2.65.16A4.65,4.65,0,0,1,82.62,183a7.31,7.31,0,0,1-1.86-5.74,4.81,4.81,0,0,1,1.1-2.38,4.93,4.93,0,0,1,2.23-1.42,5.39,5.39,0,0,1,1.69-.28,4.27,4.27,0,0,1,1.56.28,4,4,0,0,1,1.33.83A4.63,4.63,0,0,1,89.67,175.63Z" transform="translate(-2.84 -4.13)"/><path class="cls-2" d="M93.88,181.54l-5.54-9.39,1.7-1,2.35,4,4.35-2.57-2.35-4,1.71-1,5.54,9.39-1.7,1-2.36-4-4.35,2.57,2.36,4Z" transform="translate(-2.84 -4.13)"/><path class="cls-2" d="M107.33,164.94a6.43,6.43,0,0,1,1.5,2.7,4.66,4.66,0,0,1-.06,2.62,5.26,5.26,0,0,1-3.85,3.4,4.71,4.71,0,0,1-2.61-.25,7.24,7.24,0,0,1-4-4.52,4.74,4.74,0,0,1,.07-2.62,4.92,4.92,0,0,1,1.48-2.2,5,5,0,0,1,2.36-1.2,4.62,4.62,0,0,1,2.61.25A6.4,6.4,0,0,1,107.33,164.94Zm-1.49,1.32a5,5,0,0,0-1.68-1.31,2.73,2.73,0,0,0-3.13.45,2.8,2.8,0,0,0-.88,1.37,2.85,2.85,0,0,0,.06,1.68,5.87,5.87,0,0,0,2.78,3.13,2.8,2.8,0,0,0,1.65.26,2.74,2.74,0,0,0,1.47-.71,2.82,2.82,0,0,0,.89-1.37,3,3,0,0,0-.06-1.68A5.18,5.18,0,0,0,105.84,166.26Z" transform="translate(-2.84 -4.13)"/><path class="cls-2" d="M113.57,157.42l1.25,1-3,3.87-1.25-1Z" transform="translate(-2.84 -4.13)"/><path class="cls-3" d="M72.88,25.81c26.19,0,47.41,32.6,47.41,72.81s-21.22,72.81-47.41,72.81-47.41-32.6-47.41-72.81S46.7,25.81,72.88,25.81Z" transform="translate(-2.84 -4.13)"/><path class="cls-2" d="M21.12,111l.37,3.68-10.85,1.09L10.26,112a5.7,5.7,0,0,1,.37-2.85,4.35,4.35,0,0,1,1.68-2,6.28,6.28,0,0,1,2.84-.92,6.32,6.32,0,0,1,3,.33,4.46,4.46,0,0,1,2.06,1.62A5.88,5.88,0,0,1,21.12,111Zm-1.53,1.88-.16-1.61a3.89,3.89,0,0,0-.61-1.85,2.61,2.61,0,0,0-1.36-1,5,5,0,0,0-2.11-.17,4.87,4.87,0,0,0-2,.59,2.6,2.6,0,0,0-1.12,1.25,3.77,3.77,0,0,0-.23,1.89l.17,1.67Z" transform="translate(-2.84 -4.13)"/><path class="cls-2" d="M9.66,103.72l10.9-.51.09,2-10.9.52Z" transform="translate(-2.84 -4.13)"/><path class="cls-2" d="M20.51,102.51l-10.91.11,0-4.09A4.56,4.56,0,0,1,10,96.41a2.93,2.93,0,0,1,1.21-1.3A3.67,3.67,0,0,1,13,94.65a3.53,3.53,0,0,1,1.82.42A3,3,0,0,1,16,96.37a4.92,4.92,0,0,1,.44,2.11l0,2.92-1.64,0,0-2.65a3.1,3.1,0,0,0-.22-1.2,1.38,1.38,0,0,0-.61-.69,2,2,0,0,0-1-.22,2.13,2.13,0,0,0-1,.24,1.49,1.49,0,0,0-.62.71,2.81,2.81,0,0,0-.2,1.21l0,1.81,9.25-.1Zm-5-5.59,4.92-2.75,0,2.21-4.92,2.7Z" transform="translate(-2.84 -4.13)"/><path class="cls-2" d="M20.51,94,9.63,93.27l.48-7.08,1.66.12-.35,5.1,2.95.21.33-4.74,1.65.11L16,91.73l3,.21.36-5.15L21,86.9Z" transform="translate(-2.84 -4.13)"/><path class="cls-2" d="M15.24,75.94l-.29,2a2.37,2.37,0,0,0-.9.19,2.23,2.23,0,0,0-.73.47,2.3,2.3,0,0,0-.51.71,3.15,3.15,0,0,0-.27.9,3,3,0,0,0,.21,1.63,3.05,3.05,0,0,0,1.13,1.25,5.07,5.07,0,0,0,2,.69A5.16,5.16,0,0,0,18,83.67a2.79,2.79,0,0,0,2.09-2.37,2.9,2.9,0,0,0,0-.93,2.33,2.33,0,0,0-.27-.82,2.32,2.32,0,0,0-1.33-1.11l.3-2a4.47,4.47,0,0,1,1.38.69,4.31,4.31,0,0,1,1,1.13,4.15,4.15,0,0,1,.6,1.5,5.14,5.14,0,0,1,0,1.8,5,5,0,0,1-1,2.44,4.69,4.69,0,0,1-2.16,1.48,6.48,6.48,0,0,1-3.08.2,6.47,6.47,0,0,1-2.89-1.08,4.76,4.76,0,0,1-1.64-2A4.9,4.9,0,0,1,10.78,80a5.52,5.52,0,0,1,.5-1.64,4.36,4.36,0,0,1,1-1.28,4.12,4.12,0,0,1,1.33-.82A4.78,4.78,0,0,1,15.24,75.94Z" transform="translate(-2.84 -4.13)"/><path class="cls-2" d="M12.29,72.44,23,74.64l-.4,1.94L11.9,74.38Z" transform="translate(-2.84 -4.13)"/><path class="cls-2" d="M12.53,66.85l-2-1.79.5-1.82,1.92,2.21ZM20.34,63a6.42,6.42,0,0,1,2.74,1.42,4.76,4.76,0,0,1,1.38,2.23,5.29,5.29,0,0,1-1.34,5,4.82,4.82,0,0,1-2.33,1.23,6.43,6.43,0,0,1-3.08-.16A6.38,6.38,0,0,1,15,71.25,4.66,4.66,0,0,1,13.59,69a5,5,0,0,1,0-2.65,5.05,5.05,0,0,1,1.31-2.3,4.68,4.68,0,0,1,2.33-1.22A6.43,6.43,0,0,1,20.34,63Zm-.52,1.91a5.16,5.16,0,0,0-2.12-.17,2.92,2.92,0,0,0-1.53.69,3,3,0,0,0-.83,3,3,3,0,0,0,1,1.37,4.91,4.91,0,0,0,1.92.92,5,5,0,0,0,2.13.18,3,3,0,0,0,1.53-.69,3,3,0,0,0,.82-3,2.9,2.9,0,0,0-1-1.37A5.06,5.06,0,0,0,19.82,64.92Z" transform="translate(-2.84 -4.13)"/><path class="cls-2" d="M18.89,51.53l10.17,3.93-.63,1.64-8.79,2.11,0,.09L26.54,62l-.71,1.85L15.65,59.88l.64-1.64,8.79-2.11,0-.09-6.94-2.68Z" transform="translate(-2.84 -4.13)"/><path class="cls-2" d="M31.48,50.52,22.08,45l2.08-3.53a4.55,4.55,0,0,1,1.45-1.6,3,3,0,0,1,1.71-.49,3.69,3.69,0,0,1,1.8.55,3.57,3.57,0,0,1,1.34,1.3A3,3,0,0,1,30.82,43a4.89,4.89,0,0,1-.72,2L28.62,47.5l-1.41-.83,1.34-2.28A3,3,0,0,0,29,43.25a1.47,1.47,0,0,0-.17-.91,2.23,2.23,0,0,0-1.7-1,1.42,1.42,0,0,0-.89.28,2.79,2.79,0,0,0-.8.93l-.92,1.56,8,4.7Zm-1.4-7.36,5.63.18-1.12,1.9L29,45Z" transform="translate(-2.84 -4.13)"/><path class="cls-2" d="M35.85,43.22l-8.71-6.57L31.42,31l1.32,1-3.08,4.09L32,37.85l2.86-3.79,1.33,1-2.87,3.79,2.38,1.8,3.11-4.12,1.32,1Z" transform="translate(-2.84 -4.13)"/><path class="cls-2" d="M40.67,26.41a3.18,3.18,0,0,0-.81-.3,2.69,2.69,0,0,0-.8,0,2.34,2.34,0,0,0-.79.25,3.33,3.33,0,0,0-.73.55,2.81,2.81,0,0,0-.81,1.41A3,3,0,0,0,36.86,30a5.79,5.79,0,0,0,2.92,3,3,3,0,0,0,1.69.18,3,3,0,0,0,1.46-.81,3.1,3.1,0,0,0,.8-1.24,2.25,2.25,0,0,0,0-1.31A2.76,2.76,0,0,0,43,28.56l.37-.27-2.12,2.07-1.08-1.1,3.16-3.1.92.94a4.73,4.73,0,0,1,1.27,2.15,4.08,4.08,0,0,1-.07,2.27,5,5,0,0,1-1.33,2.07A5.11,5.11,0,0,1,41.8,35a4.61,4.61,0,0,1-2.62-.14,6.39,6.39,0,0,1-2.54-1.69,6.93,6.93,0,0,1-1.39-1.94,5.27,5.27,0,0,1-.48-2,4.41,4.41,0,0,1,.36-1.9,5,5,0,0,1,1.15-1.66,5.26,5.26,0,0,1,1.39-1,4.64,4.64,0,0,1,1.52-.44,4.09,4.09,0,0,1,2.92.81Z" transform="translate(-2.84 -4.13)"/><path class="cls-2" d="M43,20.06l6.6,8.69-1.57,1.19-6.61-8.68Z" transform="translate(-2.84 -4.13)"/><path class="cls-2" d="M56.24,18.48a6.41,6.41,0,0,1,.88,3A4.77,4.77,0,0,1,56.48,24,5.27,5.27,0,0,1,52,26.46a4.7,4.7,0,0,1-2.49-.82,6.42,6.42,0,0,1-2-2.33,6.38,6.38,0,0,1-.88-3,4.65,4.65,0,0,1,.64-2.54A4.92,4.92,0,0,1,49.15,16a5,5,0,0,1,2.56-.66,4.77,4.77,0,0,1,2.5.82A6.43,6.43,0,0,1,56.24,18.48Zm-1.74,1a5,5,0,0,0-1.35-1.65,2.9,2.9,0,0,0-1.56-.62,2.87,2.87,0,0,0-1.59.37,2.83,2.83,0,0,0-1.16,1.14,2.9,2.9,0,0,0-.31,1.65,4.94,4.94,0,0,0,.67,2A5.21,5.21,0,0,0,50.55,24a3,3,0,0,0,1.56.62,3.07,3.07,0,0,0,2.75-1.52,2.9,2.9,0,0,0,.31-1.65A5.05,5.05,0,0,0,54.5,19.44Z" transform="translate(-2.84 -4.13)"/><path class="cls-2" d="M66,10.19l2.58,10.6-1.71.42-6.75-6-.09,0,1.76,7.22-1.92.47-2.58-10.6L59,11.89l6.75,6,.09,0-1.76-7.22Z" transform="translate(-2.84 -4.13)"/><path class="cls-2" d="M71.35,20.72l-2.11-.08L73.51,9.89l2.43.09L79.36,21,77.25,21l-2.57-8.78H74.6Zm.24-4.27,5.75.22-.07,1.59L71.53,18Z" transform="translate(-2.84 -4.13)"/><path class="cls-2" d="M79.86,21.35l3-10.5,1.9.54-2.52,8.9,4.62,1.31-.45,1.6Z" transform="translate(-2.84 -4.13)"/><path class="cls-2" d="M94.42,27.57l-3-2.09,6.16-9,3.11,2.13a5.59,5.59,0,0,1,1.94,2.11,4.42,4.42,0,0,1,.43,2.56,6.29,6.29,0,0,1-1.13,2.77,6.38,6.38,0,0,1-2.17,2.06,4.45,4.45,0,0,1-2.57.53A5.87,5.87,0,0,1,94.42,27.57ZM94,25.19l1.34.91a3.85,3.85,0,0,0,1.81.73,2.65,2.65,0,0,0,1.65-.38,5.1,5.1,0,0,0,1.49-1.51,5,5,0,0,0,.86-1.93,2.64,2.64,0,0,0-.24-1.67A3.64,3.64,0,0,0,99.59,20L98.2,19Z" transform="translate(-2.84 -4.13)"/><path class="cls-2" d="M99.34,31.17l7.63-7.8,5.07,5-1.16,1.19-3.65-3.58-2.08,2.11,3.4,3.33-1.16,1.18L104,29.24l-2.09,2.13L105.6,35l-1.16,1.18Z" transform="translate(-2.84 -4.13)"/><path class="cls-2" d="M107.86,40.36l9-6.13,4,5.86L119.5,41l-2.87-4.24-2.45,1.67,2.67,3.93-1.37.93-2.67-3.93-2.47,1.67,2.9,4.27-1.37.93Z" transform="translate(-2.84 -4.13)"/><path class="cls-2" d="M114,50.17l-1.72-3.28L122,41.83l1.75,3.35a5.71,5.71,0,0,1,.72,2.78,4.43,4.43,0,0,1-.83,2.46,6.43,6.43,0,0,1-2.3,1.91,6.3,6.3,0,0,1-2.89.79,4.34,4.34,0,0,1-2.5-.74A5.64,5.64,0,0,1,114,50.17Zm.71-2.32.76,1.44a3.93,3.93,0,0,0,1.25,1.49,2.58,2.58,0,0,0,1.64.43,5,5,0,0,0,2-.62,4.92,4.92,0,0,0,1.67-1.31,2.66,2.66,0,0,0,.58-1.57,3.87,3.87,0,0,0-.5-1.84l-.78-1.49Z" transform="translate(-2.84 -4.13)"/><path class="cls-2" d="M129.36,57.94l.71,1.84-6.64,2.58a3.84,3.84,0,0,1-2.12.23,3.68,3.68,0,0,1-1.85-.94,5.69,5.69,0,0,1-1.69-4.35,3.74,3.74,0,0,1,.73-1.94,3.81,3.81,0,0,1,1.73-1.26l6.64-2.58.72,1.85-6.49,2.51a2.52,2.52,0,0,0-1,.72,2.18,2.18,0,0,0-.47,1.1,2.74,2.74,0,0,0,.19,1.32,2.62,2.62,0,0,0,.75,1.1,2.08,2.08,0,0,0,1.09.49,2.35,2.35,0,0,0,1.24-.16Z" transform="translate(-2.84 -4.13)"/><path class="cls-2" d="M129.63,71.67l-.52-1.92a2.49,2.49,0,0,0,.75-.54,2.14,2.14,0,0,0,.47-.72,2.7,2.7,0,0,0,.19-.85,3.07,3.07,0,0,0-.12-.94,2.83,2.83,0,0,0-.85-1.4,2.93,2.93,0,0,0-1.54-.7,5.28,5.28,0,0,0-2.11.18,5.19,5.19,0,0,0-1.93.94,2.9,2.9,0,0,0-1,1.38,3,3,0,0,0,0,1.63,3.27,3.27,0,0,0,.37.85,2.37,2.37,0,0,0,.58.64,2.11,2.11,0,0,0,.76.39,2.26,2.26,0,0,0,.91.09l.52,1.93a4.34,4.34,0,0,1-3-.69,4.26,4.26,0,0,1-1.15-1.13,5.28,5.28,0,0,1-.76-1.64,5.08,5.08,0,0,1,0-2.65,4.63,4.63,0,0,1,1.39-2.22,7.27,7.27,0,0,1,5.81-1.6,4.67,4.67,0,0,1,2.33,1.21,4.9,4.9,0,0,1,1.32,2.29,5.31,5.31,0,0,1,.2,1.7,4.18,4.18,0,0,1-.35,1.54,4,4,0,0,1-.89,1.29A4.39,4.39,0,0,1,129.63,71.67Z" transform="translate(-2.84 -4.13)"/><path class="cls-2" d="M123,75.36l-.37-2.08L134,75.12l.43,2.4-10,5.73L124,81.17l8-4.41,0-.08Zm4.23-.69,1,5.66-1.57.28-1-5.66Z" transform="translate(-2.84 -4.13)"/><path class="cls-2" d="M132.41,91.48l-.19-2a2.51,2.51,0,0,0,.84-.4,2.22,2.22,0,0,0,.59-.63,2.41,2.41,0,0,0,.32-.81,2.91,2.91,0,0,0,.05-.94,2.88,2.88,0,0,0-.6-1.53,2.85,2.85,0,0,0-1.39-.94,4.88,4.88,0,0,0-2.11-.19,5.07,5.07,0,0,0-2.06.59,2.89,2.89,0,0,0-1.18,1.2,2.86,2.86,0,0,0-.29,1.6,3.49,3.49,0,0,0,.22.9,2.59,2.59,0,0,0,.46.73,2.16,2.16,0,0,0,.68.52,2.36,2.36,0,0,0,.88.25l.18,2a4.31,4.31,0,0,1-1.5-.34,4.37,4.37,0,0,1-2.22-2.16,5,5,0,0,1-.46-1.74A4.9,4.9,0,0,1,125,85a4.61,4.61,0,0,1,1.75-2,7.27,7.27,0,0,1,6-.58,4.66,4.66,0,0,1,2.08,1.6,4.84,4.84,0,0,1,.91,2.48,5.38,5.38,0,0,1-.09,1.71,4.39,4.39,0,0,1-.61,1.46,4.18,4.18,0,0,1-1.1,1.12A4.55,4.55,0,0,1,132.41,91.48Z" transform="translate(-2.84 -4.13)"/><path class="cls-2" d="M136.13,94.15l-10.9.46-.08-2L136,92.17Z" transform="translate(-2.84 -4.13)"/><path class="cls-2" d="M130.67,105.2a6.33,6.33,0,0,1-3-.69,4.58,4.58,0,0,1-1.9-1.82,5.19,5.19,0,0,1,.07-5.12,4.7,4.7,0,0,1,1.94-1.77,7.22,7.22,0,0,1,6,.08,4.74,4.74,0,0,1,1.9,1.81,5,5,0,0,1,.63,2.57,4.89,4.89,0,0,1-.7,2.56,4.61,4.61,0,0,1-1.94,1.76A6.34,6.34,0,0,1,130.67,105.2Zm0-2a5.07,5.07,0,0,0,2.1-.36,3,3,0,0,0,1.31-1,2.87,2.87,0,0,0,.46-1.57,2.81,2.81,0,0,0-.42-1.58,3,3,0,0,0-1.28-1.08,5.18,5.18,0,0,0-2.09-.41,5.07,5.07,0,0,0-2.1.36,2.89,2.89,0,0,0-1.31,1,2.83,2.83,0,0,0-.46,1.56,2.79,2.79,0,0,0,.42,1.58,2.86,2.86,0,0,0,1.28,1.08A5,5,0,0,0,130.7,103.22Zm6.58-3.69,2.42,1.23,0,1.88L137.26,101Z" transform="translate(-2.84 -4.13)"/><path class="cls-2" d="M135.14,115.71l-10.86-1.07.18-1.75,7.9-4.38v-.09l-7.4-.74.2-2L136,106.79l-.17,1.76-7.91,4.38V113l7.4.74Z" transform="translate(-2.84 -4.13)"/><path class="cls-4" d="M83.21,94.81c-1.17,0-1.79.83-2.58-.58-.28-.49-.25-.13-.24-.81,0-1.27.76-.63.4-1.93.46.19.32.07.6.37l.1-.33c-.12-.74-.51-.77-.51-1.76.68-.26,1.29-.2,1.9-.69.05-.85-.67-1.43-1.09-2.13-.86-1.41-.83-.82-1.94-1.43-1.45-.78-1.12-3.35-1.5-5.08a9.46,9.46,0,0,1-.21-1.33c-.14-1.57-1.11-2.59-.1-4,1.19-1.66.36-1,.24-2.18a6.67,6.67,0,0,1,1-2.34,1.25,1.25,0,0,1,1.26.4c1.16,1.26-.38.44,2.68,2.51l4.3,2.72c2.26,1.42,1.24,2,4.47,2.55,1.26.2,4.69,1.14,5.9,1a3.38,3.38,0,0,0,.71-2.05,11.56,11.56,0,0,0-2-1.63c-1-.61-1-.72-1.8-2s-2.26-3.53-3.39-4.18c.08-1.49.34-1.17-.6-2.63a6.68,6.68,0,0,0-2.19-1.42c.22-1.2.48-.93.07-2.34-.46-1.58.12-1.48,0-2.34-1.34-.63-1-1-1.79-3.18l-1.74.36c-.12-.6-.34-2.23-.48-2.68a17.23,17.23,0,0,1-.92-2.12,3.14,3.14,0,0,0-1.2-1.89c-1.66-1.71-.93-.74-2-.76C80,50.26,79.5,49.43,79,48.8s-.28-.59-.59-1.37c-.39-1-.32-.44-1.1-.83-.16-1,.18-1.79-.31-2.39-1-1.27-.34-1.05-.82-2A12.33,12.33,0,0,0,75,40.74c-.12-.15-.53-.64-.61-.78-.33-.55,0-.6-.48-.93-.61-.38-1.41.08-2.28-.24s-1-.86-2.06-.32c-1.2.66-1.4,2-3.54,1.41-1.67-.49-2-1.18-3-2.13a5.84,5.84,0,0,0-1.81-.87c-.61-.29-.76-1.06-1-1.68-1-.05-1.24.07-1.6.89s-.51.79-1.63.92c-1.31.15-.7.43-1.5,1a15,15,0,0,0-1.63.88,3.89,3.89,0,0,0-.7,1.69c0,.93,1.12,2.68,1.62,3.43.35.53.62,1.16,1.35,1,2.38-.64,1.78.71,2.66,1.92.72,1,1.64,1.93,2.18,2.84,1.19,2,.06,2.52.77,4,.91,1.91.85,1.65.48,3.88l-.94.14c0,4.51.06,1.64,1.21,4.63A4.37,4.37,0,0,1,63,65.25C61.73,65.18,61,63.61,59.68,64s-1.36,2.27-.91,3.36c.64,1.52,0,2.25-1.44,2.59-.73.17-1.37.16-2.12.27-2,.32-1.69-1-2.8.68-.86,1.33-2.16,1.37-2.84,2.31.59,1.77,1.83,1.35,2.71,2a2.43,2.43,0,0,1-1,1.33c-.75.55-1.24,0-1.94-.13a3.69,3.69,0,0,1-1.85-.53L47,75c-.66-1.28-1.33-.74-2.44-.38-2.06.65-2,.1-2.63,2.25A6,6,0,0,0,41.51,79c.59.49,1.46.84,1.84,1.21.57.54.46,1.16,1.33,1.9l.39.31.08.06.35.38c.85,1.21.12,3.12.45,4.42a10.55,10.55,0,0,0,.93,2.16c.51,1.05.12,1.65.1,2.83,0,3.67-.6.74-.55,5.89a3.73,3.73,0,0,0,.69.45c.55.31.5.17.47.85-.84.5-1.8.18-3,.23l-4.49.42c-.9.06-.76-.06-1.24.45-.87.9-2.75,1.73-2.77,3.78s1.82,1-.34,4.89c-.4.74-1.07,1.36-1.12,2.24.67,1.12,2.5,1.42,2.69,2.82.15,1.12-.6,1.19-.56,2.22a10.25,10.25,0,0,0,.37,1.7c.11.53.28.84,1.78.5,2.27-.52,2-3,3.59-1.77a6.34,6.34,0,0,1,.88,1.07c.43.52.78.46.82,1.16.1,1.8-.25,1.62,1.34,2.71,1.2.83,1.22,1,1.41,2.51.31,2.39,2.25,3.29,2.38,5.58.24,4.23.18,3.67-1.3,4.84-.68.54-.84.35-.74,1.33a7.17,7.17,0,0,1,1-.17c.48.82.73.83,1.73,1.07a14.9,14.9,0,0,0,2.42.4c1.58.06,3.84-.73,5,.24.15,1.07-.41.68.18,2,.26.57.66,1.09.93,1.6s.52,1.5.73,1.81c.46.65,1.12.23,1.59.92.5,1.37-.56,1.89.8,3.52a4,4,0,0,0,2.68,1.66c1.39.24,2.09-.41,2.9-1.38L69,146.11a.77.77,0,0,1,.36-.2l.09,0c.7-.09.75.54.86,1.14a6.92,6.92,0,0,1,.19,1.59l-1.26.72c.53,1.47.49-.31.39,2.67,0,.64,0,1.6,1.39.9l.79-.47c.85-.52,1.63-.51,2-1.5a11.21,11.21,0,0,1,1.7-2.91c.46-.53.57-.3,1.17-.49.18-3.48-1.21-4.15,1.83-4a11.39,11.39,0,0,0,1.37,1.63c.9,1,.47.78,1.86,1.24,3.48,1.13,4.77.1,7.8-1.06l.39-.16a1.62,1.62,0,0,1,.18-.1,1.54,1.54,0,0,1,1.68.1,10.87,10.87,0,0,0,4.73.6c.06-1.21-.72-2.26.11-3.83,2.36-.17,3,.71,3.67.46s1.28-1.8,1.74-2.63c.68-1.26,2.64-2.27,3-3.5a31.39,31.39,0,0,0,.74-5.63,3.17,3.17,0,0,1-.52-3.41c1.53-3.08,4.2-.48,6.11-2l.08-.07.08-.07c0-.54-.26-1.47-.37-2.19-.93-.55-2.19-.82-3.09-1.67a8.39,8.39,0,0,0-1.42-1,3,3,0,0,0-1.74-.79c-1.11,1.34-.27,1-2.25,1.21-.68.07-.77.42-1.2.66L97,122.43c-1.23.08-1.93-.57-2.91-.66-.42.42-.52,1-.87,1.5a5.74,5.74,0,0,0-1.09,1.44c-.33.71-.72.76-1.57.82s-1.18.44-2.23.23a28.45,28.45,0,0,1-1.16-3c-.17-.45-.35-.48-.37-1.1l1.36-.08a8.7,8.7,0,0,0,1.09-3.36,2.62,2.62,0,0,0-.57-1.87,7,7,0,0,1-.92-2.3l0-.09-.27-.75c-.24-.65-.6-1.24-.23-1.79l.95-1.3a4,4,0,0,0,.05-2.11c-.21-2,0-2.09-1-3.57a10.41,10.41,0,0,1-2.19-4.69,8,8,0,0,0-.34-2A17.36,17.36,0,0,0,83.21,94.81Z" transform="translate(-2.84 -4.13)"/><path class="cls-5" d="M83.21,94.81c-1.17,0-1.79.83-2.58-.58-.28-.49-.25-.13-.24-.81,0-1.27.76-.63.4-1.93.46.19.32.07.6.37l.1-.33c-.12-.74-.51-.77-.51-1.76.68-.26,1.29-.2,1.9-.69.05-.85-.67-1.43-1.09-2.13-.86-1.41-.83-.82-1.94-1.43-1.45-.78-1.12-3.35-1.5-5.08a9.46,9.46,0,0,1-.21-1.33c-.14-1.57-1.11-2.59-.1-4,1.19-1.66.36-1,.24-2.18a6.67,6.67,0,0,1,1-2.34,1.25,1.25,0,0,1,1.26.4c1.16,1.26-.38.44,2.68,2.51l4.3,2.72c2.26,1.42,1.24,2,4.47,2.55,1.26.2,4.69,1.14,5.9,1a3.38,3.38,0,0,0,.71-2.05,11.56,11.56,0,0,0-2-1.63c-1-.61-1-.72-1.8-2s-2.26-3.53-3.39-4.18c.08-1.49.34-1.17-.6-2.63a6.68,6.68,0,0,0-2.19-1.42c.22-1.2.48-.93.07-2.34-.46-1.58.12-1.48,0-2.34-1.34-.63-1-1-1.79-3.18l-1.74.36c-.12-.6-.34-2.23-.48-2.68a17.23,17.23,0,0,1-.92-2.12,3.14,3.14,0,0,0-1.2-1.89c-1.66-1.71-.93-.74-2-.76C80,50.26,79.5,49.43,79,48.8s-.28-.59-.59-1.37c-.39-1-.32-.44-1.1-.83-.16-1,.18-1.79-.31-2.39-1-1.27-.34-1.05-.82-2A12.33,12.33,0,0,0,75,40.74c-.12-.15-.53-.64-.61-.78-.33-.55,0-.6-.48-.93-.61-.38-1.41.08-2.28-.24s-1-.86-2.06-.32c-1.2.66-1.4,2-3.54,1.41-1.67-.49-2-1.18-3-2.13a5.84,5.84,0,0,0-1.81-.87c-.61-.29-.76-1.06-1-1.68-1-.05-1.24.07-1.6.89s-.51.79-1.63.92c-1.31.15-.7.43-1.5,1a15,15,0,0,0-1.63.88,3.89,3.89,0,0,0-.7,1.69c0,.93,1.12,2.68,1.62,3.43.35.53.62,1.16,1.35,1,2.38-.64,1.78.71,2.66,1.92.72,1,1.64,1.93,2.18,2.84,1.19,2,.06,2.52.77,4,.91,1.91.85,1.65.48,3.88l-.94.14c0,4.51.06,1.64,1.21,4.63A4.37,4.37,0,0,1,63,65.25C61.73,65.18,61,63.61,59.68,64s-1.36,2.27-.91,3.36c.64,1.52,0,2.25-1.44,2.59-.73.17-1.37.16-2.12.27-2,.32-1.69-1-2.8.68-.86,1.33-2.16,1.37-2.84,2.31.59,1.77,1.83,1.35,2.71,2a2.43,2.43,0,0,1-1,1.33c-.75.55-1.24,0-1.94-.13a3.69,3.69,0,0,1-1.85-.53L47,75c-.66-1.28-1.33-.74-2.44-.38-2.06.65-2,.1-2.63,2.25A6,6,0,0,0,41.51,79c.59.49,1.46.84,1.84,1.21.57.54.46,1.16,1.33,1.9l.39.31.08.06.35.38c.85,1.21.12,3.12.45,4.42a10.55,10.55,0,0,0,.93,2.16c.51,1.05.12,1.65.1,2.83,0,3.67-.6.74-.55,5.89a3.73,3.73,0,0,0,.69.45c.55.31.5.17.47.85-.84.5-1.8.18-3,.23l-4.49.42c-.9.06-.76-.06-1.24.45-.87.9-2.75,1.73-2.77,3.78s1.82,1-.34,4.89c-.4.74-1.07,1.36-1.12,2.24.67,1.12,2.5,1.42,2.69,2.82.15,1.12-.6,1.19-.56,2.22a10.25,10.25,0,0,0,.37,1.7c.11.53.28.84,1.78.5,2.27-.52,2-3,3.59-1.77a6.34,6.34,0,0,1,.88,1.07c.43.52.78.46.82,1.16.1,1.8-.25,1.62,1.34,2.71,1.2.83,1.22,1,1.41,2.51.31,2.39,2.25,3.29,2.38,5.58.24,4.23.18,3.67-1.3,4.84-.68.54-.84.35-.74,1.33a7.17,7.17,0,0,1,1-.17c.48.82.73.83,1.73,1.07a14.9,14.9,0,0,0,2.42.4c1.58.06,3.84-.73,5,.24.15,1.07-.41.68.18,2,.26.57.66,1.09.93,1.6s.52,1.5.73,1.81c.46.65,1.12.23,1.59.92.5,1.37-.56,1.89.8,3.52a4,4,0,0,0,2.68,1.66c1.39.24,2.09-.41,2.9-1.38L69,146.11a.77.77,0,0,1,.36-.2l.09,0c.7-.09.75.54.86,1.14a6.92,6.92,0,0,1,.19,1.59l-1.26.72c.53,1.47.49-.31.39,2.67,0,.64,0,1.6,1.39.9l.79-.47c.85-.52,1.63-.51,2-1.5a11.21,11.21,0,0,1,1.7-2.91c.46-.53.57-.3,1.17-.49.18-3.48-1.21-4.15,1.83-4a11.39,11.39,0,0,0,1.37,1.63c.9,1,.47.78,1.86,1.24,3.48,1.13,4.77.1,7.8-1.06l.39-.16a1.62,1.62,0,0,1,.18-.1,1.54,1.54,0,0,1,1.68.1,10.87,10.87,0,0,0,4.73.6c.06-1.21-.72-2.26.11-3.83,2.36-.17,3,.71,3.67.46s1.28-1.8,1.74-2.63c.68-1.26,2.64-2.27,3-3.5a31.39,31.39,0,0,0,.74-5.63,3.17,3.17,0,0,1-.52-3.41c1.53-3.08,4.2-.48,6.11-2l.08-.07.08-.07c0-.54-.26-1.47-.37-2.19-.93-.55-2.19-.82-3.09-1.67a8.39,8.39,0,0,0-1.42-1,3,3,0,0,0-1.74-.79c-1.11,1.34-.27,1-2.25,1.21-.68.07-.77.42-1.2.66L97,122.43c-1.23.08-1.93-.57-2.91-.66-.42.42-.52,1-.87,1.5a5.74,5.74,0,0,0-1.09,1.44c-.33.71-.72.76-1.57.82s-1.18.44-2.23.23a28.45,28.45,0,0,1-1.16-3c-.17-.45-.35-.48-.37-1.1l1.36-.08a8.7,8.7,0,0,0,1.09-3.36,2.62,2.62,0,0,0-.57-1.87,7,7,0,0,1-.92-2.3l0-.09-.27-.75c-.24-.65-.6-1.24-.23-1.79l.95-1.3a4,4,0,0,0,.05-2.11c-.21-2,0-2.09-1-3.57a10.41,10.41,0,0,1-2.19-4.69,8,8,0,0,0-.34-2A17.36,17.36,0,0,0,83.21,94.81Z" transform="translate(-2.84 -4.13)"/><path class="cls-4" d="M83.21,94.81a3.38,3.38,0,0,0-.37-1c-.14-.27-.25-.52-.42-.81-.27-.47-.47-1.18-.93-1.5l-.1.33c-.28-.3-.14-.18-.6-.37.36,1.3-.39.66-.4,1.93,0,.68,0,.32.24.81C81.42,95.64,82,94.83,83.21,94.81Z" transform="translate(-2.84 -4.13)"/><path class="cls-5" d="M83.21,94.81a3.38,3.38,0,0,0-.37-1c-.14-.27-.25-.52-.42-.81-.27-.47-.47-1.18-.93-1.5l-.1.33c-.28-.3-.14-.18-.6-.37.36,1.3-.39.66-.4,1.93,0,.68,0,.32.24.81C81.42,95.64,82,94.83,83.21,94.81Z" transform="translate(-2.84 -4.13)"/><polygon class="cls-6" points="40.72 143.82 100.8 143.22 96.09 129.71 86.32 129.95 80.89 107.03 76.43 107.15 74.38 87.61 73.18 87.24 71.61 71.2 70.52 71.2 68.29 38.57 66.3 38.57 66.18 92.43 68.83 88.33 69.07 95.57 63.28 95.32 62.56 106.78 60.39 106.66 56.89 129.65 43.68 129.65 40.72 143.82"/><polygon class="cls-7" points="64.75 75.96 62.7 75.72 59.57 102.98 57.93 103.06 54.67 129.68 57.11 129.83 60.85 106.42 62.78 106.54 63.63 95.32 68.93 95.69 68.57 87.85 66.4 92.43 66.16 49.48 65.5 49.66 64.75 75.96"/><polygon class="cls-8" points="64.75 75.96 62.7 75.72 59.57 102.98 57.93 103.06 54.67 129.68 57.11 129.83 60.85 106.42 62.78 106.54 63.63 95.32 68.93 95.69 68.57 87.85 66.4 92.43 66.16 49.48 65.5 49.66 64.75 75.96"/><polygon class="cls-9" points="64.56 95.36 69.64 95.57 69.12 88.16 66.61 92.55 66.48 55.33 66.16 55.3 65.61 65.42 64.56 95.36"/><polygon class="cls-10" points="64.56 95.36 69.64 95.57 69.12 88.16 66.61 92.55 66.48 55.33 66.16 55.3 65.61 65.42 64.56 95.36"/><polygon class="cls-9" points="64.39 98.21 63.43 106.41 61.14 106.53 57.79 129.53 54.69 129.48 56.06 118.28 59.93 112.56 60.8 106.35 60.95 103.97 64.39 98.21"/><polygon class="cls-10" points="64.39 98.21 63.43 106.41 61.14 106.53 57.79 129.53 54.69 129.48 56.06 118.28 59.93 112.56 60.8 106.35 60.95 103.97 64.39 98.21"/><path class="cls-11" d="M69.24,118.67l-1.54-2-1.87,3.8c-2.19,5.75-1.6.29-2.36,9.33-.1,1.23-.21,1,.14,1.46l1.13-5c.32,0,.53-.2.6-.08l16.72-.16c2.74-.18,3.46-1.58,2.31-5.52a4.19,4.19,0,0,0-.82-1.81l-.4-.62-.18-.29-.43-.79-1.9,1.74s-.38-.62-.44-.69l-.29-.35-.78-.86c.06,2.48.4,1.14-.68,1.88-1-.94-.5-.53-1-1.68a4.59,4.59,0,0,0-.75,1,3.82,3.82,0,0,0-.68,1.35c-2.5-2.28-1.44,1.06-2-3.16a7.8,7.8,0,0,1-2.11,2.22c-.48-.78-.58-1.27-1.11-2.12A3.79,3.79,0,0,1,69.24,118.67Z" transform="translate(-2.84 -4.13)"/><path class="cls-11" d="M72.5,113.14c3.37,5.12,8.38-2.56,1.18-3.07C72.91,111.4,72.63,111.49,72.5,113.14Z" transform="translate(-2.84 -4.13)"/><rect x="55.05" y="131.14" width="2.35" height="2.41"/><rect class="cls-12" x="55.05" y="131.14" width="2.35" height="2.41"/><rect x="58.36" y="131.14" width="2.35" height="2.41"/><rect class="cls-12" x="58.36" y="131.14" width="2.35" height="2.41"/><rect x="61.66" y="131.14" width="2.35" height="2.41"/><rect class="cls-12" x="61.66" y="131.14" width="2.35" height="2.41"/><rect x="65.09" y="131.14" width="2.35" height="2.41"/><rect class="cls-12" x="65.09" y="131.14" width="2.35" height="2.41"/><rect x="68.28" y="131.14" width="2.35" height="2.41"/><rect class="cls-12" x="68.28" y="131.14" width="2.35" height="2.41"/><rect x="72.27" y="131.14" width="2.35" height="2.41"/><rect class="cls-12" x="72.27" y="131.14" width="2.35" height="2.41"/><rect x="76.37" y="131.14" width="2.36" height="2.41"/><rect class="cls-12" x="76.37" y="131.14" width="2.36" height="2.41"/><rect x="79.56" y="131.14" width="2.35" height="2.41"/><rect class="cls-12" x="79.56" y="131.14" width="2.35" height="2.41"/><rect x="82.98" y="131.14" width="2.35" height="2.41"/><rect class="cls-12" x="82.98" y="131.14" width="2.35" height="2.41"/><rect x="86.17" y="131.14" width="2.35" height="2.41"/><rect class="cls-12" x="86.17" y="131.14" width="2.35" height="2.41"/><polygon class="cls-13" points="51.65 131.45 52.35 131.42 89.95 131.57 98.92 149.7 74.45 148.86 74 148.93 73.7 149.02 73.11 149.24 72.69 149.38 71.92 149.56 71.35 149.59 70.88 149.5 70.5 149.36 70.04 149.14 69.48 148.94 68.7 148.81 60.41 148.94 47.03 149.12 45.8 149.11 44.81 149.09 44.46 149.07 44.2 149.03 44.24 148.76 44.47 148.06 44.93 146.89 45.63 145.26 46.36 143.73 48.01 140.03 51.65 131.45"/><polygon class="cls-14" points="51.65 131.45 52.35 131.42 89.95 131.57 98.92 149.7 74.45 148.86 74 148.93 73.7 149.02 73.11 149.24 72.69 149.38 71.92 149.56 71.35 149.59 70.88 149.5 70.5 149.36 70.04 149.14 69.48 148.94 68.7 148.81 60.41 148.94 47.03 149.12 45.8 149.11 44.81 149.09 44.46 149.07 44.2 149.03 44.24 148.76 44.47 148.06 44.93 146.89 45.63 145.26 46.36 143.73 48.01 140.03 51.65 131.45"/><path class="cls-15" d="M47.49,152.52c3.22-2.26,4.66-2.13,8.26-2.45l5.7-.81c5-.52,8.28-.63,12.68,2.06,3.4-1.8,5.41-1.76,9.08-1.75,4.23.42,8.4,1.09,12.6,1.44.57.16,1.22.21,1.63.37a20.22,20.22,0,0,1,2.91,1.61l0,.17-1,.07-1.61,0-1.17-.08-.54-.05-1.51,0-1.6-.07-4.57-.23-3.59-.16-5-.21-2.66-.12-1,0-.56-.15-.66-.29-.42-.1-.28,0-.36,0-.31.08-.35.12-.38.11-.37.06-.49,0-.68,0h-1l-.84,0-2.15.07-1.31,0-2.36.09h-1l-3.52,0-3.52.08-2.78.07-2.34.05-.89,0h-.56l-.39-.11-.27,0Z" transform="translate(-2.84 -4.13)"/><path class="cls-14" d="M47.49,152.52c3.22-2.26,4.66-2.13,8.26-2.45l5.7-.81c5-.52,8.28-.63,12.68,2.06,3.4-1.8,5.41-1.76,9.08-1.75,4.23.42,8.4,1.09,12.6,1.44.57.16,1.22.21,1.63.37a20.22,20.22,0,0,1,2.91,1.61l0,.17-1,.07-1.61,0-1.17-.08-.54-.05-1.51,0-1.6-.07-4.57-.23-3.59-.16-5-.21-2.66-.12-1,0-.56-.15-.66-.29-.42-.1-.28,0-.36,0-.31.08-.35.12-.38.11-.37.06-.49,0-.68,0h-1l-.84,0-2.15.07-1.31,0-2.36.09h-1l-3.52,0-3.52.08-2.78.07-2.34.05-.89,0h-.56l-.39-.11-.27,0Z" transform="translate(-2.84 -4.13)"/><path class="cls-16" d="M76.61,151.12l9.85.57c.23,0,.57,0,.79,0l.29,0,.41.13c-1.49,0-3,0-4.4-.14s-2.77,0-4.29,0c3.64.27,6.83.53,10.51.51L88.64,152c-.42-.11-.19,0-.37-.16h3.25c-.24-.11-6.57-.59-7.33-.6a23.33,23.33,0,0,0,4.58.18c.47-.12.13,0,.39-.18-1.15-.44-7.63-.86-9.6-.68A12.67,12.67,0,0,0,76.61,151.12Z" transform="translate(-2.84 -4.13)"/><path class="cls-17" d="M54,150.33l0,.15s-.09,0-.12.05l-.24.1-.13,0-.5.06a2.92,2.92,0,0,1-.87.21c.94,0,1.46,0,2.37-.08-1.62.54-2.8-.3-3,1.11.28.16.33.26.64.08a3.89,3.89,0,0,0-.49,0,1.45,1.45,0,0,0-.26.07.77.77,0,0,0-.39.22l11.71-.2c-.3-.27-.13-.23-1-.28-.58,0-2.25-.37-2.72,0,2.2,0,4.38-.51,6.73-.57-.31-.36-.77-.71-1.11-.26.91,0,.53,0,1.12-.2a6.27,6.27,0,0,1,1.24-.11.49.49,0,0,0,0-.11v-.09c-.09-.59-.15-.06-.15,0a2.61,2.61,0,0,0,1.25-.14c-.37-.45-.06-.28-.69-.43h-.71c-.45,0-.78-.09-1,.15A2.61,2.61,0,0,0,67,150c-.39-.48,0-.27-.69-.43H64.22l4.3.24-.48-.32,0-.15a24.06,24.06,0,0,0-7.2.21C59.5,149.68,55,150.51,54,150.33Z" transform="translate(-2.84 -4.13)"/><path class="cls-18" d="M47.85,152.13c2.67-1.25,6.64-1.73,11.43-2.55,6.11-1.05,11.37-.38,14.64,1.49l.37.25c5.4-3.31,14.49-.94,24.2.21,2.11.06-1.85-6.44-2.47-7.69a79,79,0,0,0-4.1-8.43c-3.57-2.14-15.43-4.43-18.51-.93-5-4.3-13.56-2.11-18.68.91Z" transform="translate(-2.84 -4.13)"/><path class="cls-19" d="M47.85,152.13c2.67-1.25,6.64-1.73,11.43-2.55,6.11-1.05,11.37-.38,14.64,1.49l.37.25c5.4-3.31,14.49-.94,24.2.21,2.11.06-1.85-6.44-2.47-7.69a79,79,0,0,0-4.1-8.43c-3.57-2.14-15.43-4.43-18.51-.93-5-4.3-13.56-2.11-18.68.91Z" transform="translate(-2.84 -4.13)"/><path class="cls-20" d="M83.69,110.27a7.16,7.16,0,0,1-.09-1.83c0-.59-.23-1.07-.31-1.73l0-.07c-.16-.21,0,0-.18-.2l-2.52-.07c0,.83.94.9.42,4.3a4.7,4.7,0,0,1,2.16.17C84,110.86,83.63,110.83,83.69,110.27Z" transform="translate(-2.84 -4.13)"/><path class="cls-20" d="M85.82,107.31A14.38,14.38,0,0,1,86,109a12.36,12.36,0,0,0,.31,1.69c.56.72,1.14.53,2.27.59v-2.37l-.4-1.8L86.28,107C85.79,107.06,85.94,106.82,85.82,107.31Z" transform="translate(-2.84 -4.13)"/><path class="cls-21" d="M83.29,106.71c.08.66.29,1.14.31,1.73a7.16,7.16,0,0,0,.09,1.83c.36.41.24.46.86.51a8.79,8.79,0,0,1,1,.07c.69.09.6.31.74-.16A12.36,12.36,0,0,1,86,109a14.38,14.38,0,0,0-.2-1.69c-.24-.53,0-.5-.57-.66Z" transform="translate(-2.84 -4.13)"/></svg>